<svg xmlns="http://www.w3.org/2000/svg">
  <symbol id="home" viewBox="0 0 24 24">
    <path d="M3 11.5 12 4l9 7.5M5.5 10v9h13v-9M9 19v-5h6v5"/>
  </symbol>
  <symbol id="stats" viewBox="0 0 24 24">
    <path d="M4 19V5m0 14h16M8 16V9m4 7V6m4 10v-4"/>
  </symbol>
  <symbol id="docs" viewBox="0 0 24 24">
    <path d="M6 3h9l3 3v15H6z"/>
    <path d="M14 3v4h4M9 12h6M9 16h6"/>
  </symbol>
  <symbol id="changelog" viewBox="0 0 24 24">
    <path d="M6 4v16M10 6h10M10 12h8M10 18h10"/>
    <circle cx="6" cy="6" r="1.5"/>
    <circle cx="6" cy="12" r="1.5"/>
    <circle cx="6" cy="18" r="1.5"/>
  </symbol>
  <symbol id="about" viewBox="0 0 24 24">
    <path d="M12 17v-6m0-4h.01M21 12a9 9 0 1 1-18 0 9 9 0 0 1 18 0Z"/>
  </symbol>
  <symbol id="palette" viewBox="0 0 24 24">
    <path d="M12 3a9 9 0 0 0 0 18h1.5a2 2 0 0 0 1.4-3.4l-.3-.3a1.8 1.8 0 0 1 1.3-3.1H18a6 6 0 0 0 0-12h-6Z"/>
    <circle cx="7.5" cy="11" r="1"/>
    <circle cx="10" cy="7.5" r="1"/>
    <circle cx="14" cy="7.5" r="1"/>
  </symbol>
  <symbol id="language" viewBox="0 0 24 24">
    <path d="M8 3v2M3.5 6h9M5 8.5c1.3 2.7 3.8 4.7 7 5.7M11 8.5c-1.1 3-3.7 5.2-7 6.2"/>
    <path d="m13 21 4-10 4 10M14.5 17.5h5"/>
  </symbol>
  <symbol id="heart" viewBox="0 0 24 24">
    <path d="M20.8 4.6a5.4 5.4 0 0 0-7.6 0L12 5.8l-1.2-1.2a5.4 5.4 0 0 0-7.6 7.6L12 21l8.8-8.8a5.4 5.4 0 0 0 0-7.6Z"/>
  </symbol>
  <symbol id="selection-conditions" viewBox="0 0 24 24">
    <path d="M4 6h6m4 0h6M4 12h2m4 0h10M4 18h9m4 0h3"/>
    <circle cx="12" cy="6" r="2"/>
    <circle cx="8" cy="12" r="2"/>
    <circle cx="15" cy="18" r="2"/>
  </symbol>
  <symbol id="selection-files" viewBox="0 0 24 24">
    <path d="M3 7h7l2 2h9v10H3zM3 7V5h7l2 2"/>
    <path d="M7 13h10M7 16h7"/>
  </symbol>
  <symbol id="search" viewBox="0 0 24 24">
    <circle cx="11" cy="11" r="7"/>
    <path d="m20 20-4-4"/>
  </symbol>
  <symbol id="filter" viewBox="0 0 24 24">
    <path d="M4 6h16M7 12h10M10 18h4"/>
  </symbol>
  <symbol id="broom" viewBox="0 0 24 24">
    <path d="M12 10V4a2 2 0 0 0-4 0v6M5 14h14l2 7H3zM8 21l1-4M16 21l-1-4"/>
    <path d="M5 14v-2a2 2 0 0 1 2-2h10a2 2 0 0 1 2 2v2"/>
  </symbol>
  <symbol id="close" viewBox="0 0 24 24">
    <path d="m6 6 12 12M18 6 6 18"/>
  </symbol>
  <symbol id="chevron-down" viewBox="0 0 24 24">
    <path d="m7 10 5 5 5-5"/>
  </symbol>
</svg>
